<svg width="22" height="22" viewBox="0 0 22 22" fill="none" xmlns="http://www.w3.org/2000/svg">
<path d="M21.5 18.5833C21.5 20.1945 20.1945 21.5 18.5833 21.5H3.41667C1.80608 21.5 0.5 20.1945 0.5 18.5833V3.41667C0.5 1.8055 1.80608 0.5 3.41667 0.5H18.5833C20.1945 0.5 21.5 1.8055 21.5 3.41667V18.5833Z" fill="#3F51B5"/>
<path d="M17.0481 11.5834H15.0834V19.1667H12.1667V11.5834H10.4167V9.25004H12.1667V7.84421C12.1679 5.79787 13.0178 4.58337 15.4287 4.58337H17.4167V6.91671H16.0827C15.1441 6.91671 15.0834 7.26671 15.0834 7.92179V9.25004H17.4167L17.0481 11.5834Z" fill="white"/>
</svg>
