<svg width="22" height="22" viewBox="0 0 22 22" fill="none" xmlns="http://www.w3.org/2000/svg">
<path d="M21.0575 4.86333C20.8242 5.015 20.4917 5.155 20.3517 5.3125C20.2992 5.365 20.27 5.42333 20.2817 5.48167V6.0825L20.1067 6.67167L19.9317 7.255L19.7392 7.89667L19.3425 9.20917L18.9575 10.5042L18.6658 11.4783C18.6658 11.63 18.66 11.7817 18.6483 11.9275C18.6075 12.4875 18.4908 13.0242 18.3042 13.5258C18.1933 13.835 18.0592 14.1325 17.8958 14.4125C17.8375 14.5233 17.7675 14.6342 17.6975 14.7392C17.4642 15.1067 17.1842 15.445 16.875 15.7425C16.6358 15.9817 16.3733 16.2033 16.0875 16.39C16.0875 16.39 16.0875 16.39 16.0817 16.39C16.035 16.4308 15.9825 16.4658 15.9242 16.495C15.7433 16.6175 15.5508 16.7225 15.3525 16.8158C15.2183 16.8858 15.0842 16.9442 14.9442 16.9967C14.915 17.0142 14.88 17.0258 14.8508 17.0375C14.5183 17.195 14.1333 17.3 13.7483 17.3525C13.725 17.3583 13.7075 17.3583 13.6842 17.3642C13.4508 17.405 13.2233 17.44 12.99 17.4575C12.885 17.4692 12.7742 17.475 12.6692 17.475L12.255 17.4517L10.26 17.3467C10.26 17.3408 10.2542 17.3467 10.2542 17.3467L9.25082 17.2942C9.17498 17.2942 9.09332 17.2942 9.01748 17.2883C8.70248 17.2767 8.39915 17.2417 8.09582 17.1775C8.08998 17.1775 8.08998 17.1775 8.08998 17.1775C7.53582 17.0725 7.00498 16.8858 6.50915 16.635C6.23498 16.495 5.96665 16.3375 5.71582 16.1567C5.61082 16.0808 5.51165 15.9992 5.41248 15.9117C5.13248 15.6783 4.88165 15.4275 4.64832 15.1708C4.61332 15.1358 4.58415 15.1008 4.55498 15.0658C4.51998 15.0308 4.48498 14.99 4.45582 14.955C4.23415 14.675 4.04748 14.3892 3.89582 14.0858C3.75582 13.8175 3.64498 13.5317 3.55748 13.2167C3.52248 13.1058 3.49332 13.0008 3.46998 12.8842C3.46415 12.8783 3.45832 12.8667 3.45832 12.855C3.39998 12.6158 3.34748 12.365 3.31832 12.1142C3.28332 11.9217 3.26582 11.7292 3.26582 11.5308C3.25415 11.455 3.25415 11.3733 3.25415 11.2975L4.36832 9.57667L5.45915 7.89667L5.95498 7.1325L6.40415 6.44417L6.55582 6.205V5.60417C6.56748 5.47 6.57332 5.33 6.56748 5.20167C6.56165 4.79333 6.47998 4.39667 6.34582 4.0175C6.21748 3.615 6.03665 3.23583 5.84998 2.88583C5.62832 2.48333 5.39498 2.12167 5.20248 1.795C4.91665 1.31667 4.71832 0.925833 4.77082 0.651667C5.19082 0.5525 5.63415 0.5 6.08332 0.5H15.4167C17.855 0.5 19.955 2.01667 20.8242 4.15167C20.9175 4.37917 20.9992 4.61833 21.0575 4.86333Z" fill="#304FFE"/>
<path d="M21.25 6.33333V6.49083L20.445 6.9575L19.9317 7.255L19.3658 7.58167L18.2342 8.24083L17.1258 8.8825L15.9942 9.53583L15.545 9.79833C15.545 10.0783 15.475 10.335 15.3467 10.5683C15.1658 10.9067 14.8625 11.1867 14.4775 11.4258C14.0867 11.665 13.6083 11.8575 13.0717 11.9975C13.0717 11.9975 13.0717 11.9917 13.0658 11.9975C10.9892 12.5342 8.15415 12.2892 6.77749 11.2625C6.39249 10.9767 6.12415 10.6267 6.00749 10.2242C5.97249 10.09 5.95499 9.94417 5.95499 9.79833V5.60417C5.96082 5.51667 5.90249 5.42917 5.79749 5.34167C5.48249 5.09083 4.74165 4.85167 3.91332 4.6125C3.26582 4.43167 2.57165 4.25083 1.98832 4.07583C1.52749 3.93583 1.13665 3.79583 0.90332 3.66167C1.00832 3.4575 1.13082 3.25333 1.25915 3.06083C2.07582 1.865 3.32415 0.984167 4.77082 0.651667C5.19082 0.5525 5.63415 0.5 6.08332 0.5H12.3833C15.5158 1.04833 18.4033 2.32583 20.8242 4.15167C20.9175 4.37917 20.9992 4.61833 21.0575 4.86333C21.1625 5.24833 21.2267 5.645 21.2442 6.05917C21.25 6.14667 21.25 6.24 21.25 6.33333Z" fill="#4928F4"/>
<path d="M21.25 6.33337V8.90587L21.1216 9.30253L20.6841 10.6617L20.2291 12.0617L19.99 12.8084L19.7683 13.5025L19.5525 14.1617L19.3425 14.815L19.2316 15.1592L19.0858 15.6142C19.0858 16.0575 19.0741 16.4484 19.045 16.7809C19.0391 16.8159 19.0333 16.8509 19.0333 16.8859C18.9983 17.195 18.9516 17.4575 18.8758 17.6792C18.87 17.7142 18.8583 17.7492 18.8466 17.7784C18.695 18.1984 18.4675 18.4667 18.1291 18.6417C18.0475 18.6884 17.9541 18.7234 17.855 18.7584C17.5458 18.8634 17.155 18.9159 16.6766 18.945C16.3266 18.9684 15.9241 18.9742 15.4691 18.9742H15.0666L14.3725 18.945L14.25 18.9392L12.9841 18.8867L11.7008 18.8342L7.47162 18.6592L6.37495 18.6125H6.22329C5.76829 18.6067 5.37745 18.5775 5.03912 18.5309C4.54912 18.455 4.16995 18.3267 3.88412 18.1342C3.47579 17.8717 3.23662 17.4867 3.09662 16.95C3.06162 16.8217 3.03245 16.6875 3.01495 16.5417C2.95662 16.2034 2.92745 15.8125 2.90995 15.375C2.90995 15.2875 2.90995 15.2 2.90412 15.1067C2.89829 15.1009 2.90412 15.1009 2.90412 15.1009V14.7625C2.89829 14.5934 2.89829 14.4184 2.89829 14.2375L2.92745 13.2984L2.94495 12.6275L2.96829 11.8459V11.735L3.00912 10.3L3.04995 8.86503L3.09079 7.51753L3.12579 6.19337L3.13745 5.84337C3.13745 5.66253 2.52495 5.55753 1.84245 5.47003C1.29995 5.40003 0.704954 5.33587 0.349121 5.2542C0.378288 5.12003 0.407454 4.98587 0.442454 4.85753C0.547454 4.43753 0.704954 4.04087 0.903288 3.6617C1.00829 3.45753 1.13079 3.25337 1.25912 3.06087C2.51912 2.5067 3.83162 2.07503 5.20245 1.79503C6.40412 1.5442 7.65829 1.41003 8.95329 1.41003C13.2466 1.41003 17.2133 2.86253 20.3516 5.31253C20.655 5.54587 20.9525 5.7967 21.2441 6.0592C21.25 6.1467 21.25 6.24003 21.25 6.33337Z" fill="#6200EA"/>
<path d="M21.25 7.71584V10.3642L20.9292 10.9825L20.3167 12.1783L19.99 12.8083L19.6925 13.3858L19.5642 13.6367C19.5642 13.8175 19.5642 13.9925 19.5525 14.1617C19.5525 14.4125 19.5408 14.6517 19.5233 14.8733C19.5 15.1358 19.465 15.375 19.43 15.5967C19.3425 16.0575 19.22 16.4542 19.045 16.7808C19.0217 16.8217 18.9983 16.8625 18.975 16.8975C18.9108 17.0025 18.835 17.1017 18.7533 17.195C18.6483 17.3233 18.5317 17.4342 18.3975 17.5275C18.1992 17.6792 17.9658 17.8017 17.6975 17.895C17.365 18.0175 16.98 18.0992 16.525 18.1458C16.2275 18.175 15.9008 18.1925 15.545 18.1925L15.3 18.2042L14.0867 18.2742H14.0808L12.7917 18.35L11.4792 18.4258L9.67083 18.5308L7.47167 18.6592L7.15083 18.6767C6.85333 18.6767 6.57333 18.6592 6.305 18.6242C6.27583 18.6183 6.2525 18.6125 6.22333 18.6125C5.82667 18.5483 5.465 18.4433 5.13833 18.2975C4.74167 18.1225 4.3975 17.8892 4.10583 17.6092C3.84917 17.3583 3.6275 17.0725 3.44667 16.7517C3.40583 16.6758 3.365 16.6058 3.33 16.5242C3.155 16.18 3.015 15.795 2.91 15.375C2.8925 15.305 2.875 15.2292 2.86333 15.1533C2.82833 15.0192 2.79917 14.8792 2.78167 14.7333C2.7175 14.36 2.6825 13.9633 2.665 13.5492V13.5433C2.65917 13.3742 2.65333 13.2108 2.65333 13.0358L2.3675 12.3533L2.32667 12.2483L2.29167 12.1608L1.85417 11.1167L1.78417 10.9475L1.36417 9.93834L0.8975 8.8125C0.8975 8.8125 0.8975 8.8125 0.891667 8.8125L0.419167 7.675L0.25 7.26084V6.33334C0.25 5.96584 0.285 5.60417 0.349167 5.25417C0.378333 5.12 0.4075 4.98584 0.4425 4.8575C0.938333 4.57167 1.4575 4.30917 1.98833 4.07584C3.20167 3.53334 4.5025 3.13084 5.85 2.88584C6.85333 2.705 7.8975 2.60583 8.95333 2.60583C13.2175 2.60583 17.085 4.15167 20.1067 6.67167C20.2233 6.765 20.3342 6.85834 20.445 6.9575C20.7192 7.19667 20.9875 7.4475 21.25 7.71584Z" fill="#673AB7"/>
<path d="M21.25 9.45416V12.4525L20.9175 13.1467L20.2875 14.4592L20.2817 14.4767C20.2817 14.7275 20.27 14.955 20.2525 15.1592C20.1942 15.83 20.0308 16.2558 19.7625 16.5183C19.57 16.7167 19.3308 16.8275 19.0333 16.8858C19.0158 16.8917 18.9925 16.8917 18.975 16.8975C18.8817 16.915 18.7825 16.9267 18.6775 16.9267C18.3158 16.9617 17.89 16.9383 17.4 16.9033C17.3475 16.9033 17.2892 16.8975 17.2308 16.8917C16.875 16.8683 16.4958 16.845 16.0758 16.8275C15.8483 16.8217 15.6092 16.8158 15.3642 16.8158H15.3525L14.7633 16.8625H14.7575L13.4333 16.9558L11.9225 17.0725L11.7008 17.09L9.93333 17.2183L9.0175 17.2883L8.11333 17.3525C7.95583 17.3525 7.80417 17.3525 7.6525 17.3467C7.6525 17.3467 7.64667 17.3408 7.64667 17.3467C6.9875 17.335 6.39833 17.2942 5.87333 17.195C5.38917 17.1133 4.96333 16.985 4.60167 16.7925C4.22833 16.6117 3.91917 16.355 3.66833 16.0283C3.42917 15.7075 3.25417 15.305 3.14333 14.8208C3.14333 14.815 3.14333 14.815 3.14333 14.815C3.06167 14.4242 3.015 13.9692 3.015 13.4558L2.9275 13.2983L2.40833 12.3708L2.3325 12.2425L2.29167 12.1608L1.74917 11.1983L1.48083 10.7142L1.1425 10.1133L0.559167 9.06916L0.25 8.52083V6.37416C0.763333 6.03583 1.29417 5.73833 1.8425 5.47C2.5075 5.13166 3.19583 4.84583 3.91333 4.6125C4.695 4.35583 5.51167 4.15166 6.34583 4.01749C7.19167 3.87749 8.06083 3.8075 8.95333 3.8075C12.92 3.8075 16.56 5.22499 19.3658 7.58166C19.4942 7.68083 19.6167 7.79166 19.7392 7.89666C20.2292 8.33416 20.6958 8.80666 21.1217 9.30249C21.1683 9.35499 21.215 9.40166 21.25 9.45416Z" fill="#8E24AA"/>
<path d="M21.25 11.4141V15.6316C21.11 15.55 20.9175 15.4508 20.6783 15.3458C20.55 15.2816 20.4042 15.2175 20.2525 15.1591C20.0308 15.06 19.7917 14.9666 19.5233 14.8733C19.465 14.85 19.4067 14.8325 19.3425 14.815C19.2375 14.7741 19.1267 14.7391 19.0158 14.7041C18.6717 14.5991 18.2925 14.5 17.8958 14.4125C17.7442 14.3833 17.5867 14.3541 17.4292 14.3308C16.9217 14.2433 16.3792 14.1908 15.8133 14.185C15.7667 14.1791 15.7142 14.1791 15.6675 14.1791L14.1683 14.1908L12.1267 14.2025H12.1208L7.75167 14.2375C6.36333 14.2375 5.51167 14.57 4.99833 14.7041C4.99833 14.7041 4.9925 14.7041 4.9925 14.71C4.45 14.85 4.28083 14.7625 4.23417 13.8116C4.2225 13.5491 4.21667 13.2108 4.21667 12.7966L3.89 12.5458L3.31833 12.1141L2.96833 11.8458L2.89833 11.7933L1.93 11.0583L1.78417 10.9475L1.48083 10.7141L0.920833 10.2941L0.25 9.7808V7.79746C0.308333 7.7508 0.360833 7.70996 0.419167 7.67496C1.265 7.09163 2.16917 6.5958 3.12583 6.1933C3.9775 5.83163 4.87583 5.5458 5.7975 5.34163C6.04833 5.28913 6.305 5.23663 6.5675 5.20163C7.34333 5.06746 8.1425 5.0033 8.95333 5.0033C12.4592 5.0033 15.6792 6.22246 18.2342 8.2408C18.6192 8.54413 18.9925 8.86496 19.3425 9.20913C19.8208 9.66413 20.27 10.1483 20.6842 10.6616C20.7658 10.7666 20.8475 10.8716 20.9292 10.9825C21.04 11.1225 21.145 11.2683 21.25 11.4141Z" fill="#C2185B"/>
<path d="M21.25 13.7533V15.6666C21.25 16.0458 21.215 16.4191 21.145 16.7808C21.04 17.3175 20.8592 17.8308 20.6142 18.3091C20.4858 18.3383 20.34 18.3383 20.1767 18.315C19.8092 18.2508 19.3775 18.0583 18.9108 17.8075C18.8875 17.8016 18.8642 17.79 18.8467 17.7783C18.7008 17.7025 18.5492 17.6208 18.3975 17.5275C18.0883 17.3583 17.7617 17.1716 17.435 16.9966C17.365 16.9616 17.295 16.9266 17.2308 16.8916C16.8575 16.6991 16.4725 16.5241 16.0875 16.39C16.0875 16.39 16.0875 16.39 16.0817 16.39C16 16.3608 15.9125 16.3316 15.825 16.3083C15.4925 16.215 15.1542 16.1566 14.8275 16.1566L14.1858 15.97L11.345 15.1475C11.345 15.1475 11.345 15.1475 11.3392 15.1475L9.595 14.64H9.58917L8.83083 14.4183C6.6375 14.4183 5.29 15.3516 4.63667 14.9958C4.38 14.8616 4.22833 14.5233 4.17583 13.8583C4.15833 13.6716 4.1525 13.4616 4.1525 13.2166L3.47 12.8841L3.44083 12.8725H3.435L2.945 12.6275L2.40833 12.3708L2.3675 12.3533L2.26833 12.3008L1.125 11.7466L0.25 11.3208V9.31996C0.349167 9.23246 0.454167 9.15079 0.559167 9.06912C0.67 8.98162 0.780833 8.89996 0.891667 8.81246C0.8975 8.81246 0.8975 8.81246 0.8975 8.81246C1.58583 8.31662 2.315 7.87912 3.09083 7.51746C3.995 7.08579 4.9575 6.75329 5.955 6.53746C6.10083 6.50246 6.2525 6.46746 6.40417 6.44412C7.2325 6.28662 8.08417 6.20496 8.95333 6.20496C12.0275 6.20496 14.8508 7.20246 17.1258 8.88246C17.785 9.37246 18.3975 9.91496 18.9575 10.5041C19.4183 10.9883 19.8442 11.5133 20.2292 12.0616C20.2583 12.1025 20.2875 12.1433 20.3167 12.1783C20.5325 12.4933 20.7308 12.8141 20.9175 13.1466C21.04 13.345 21.145 13.5491 21.25 13.7533Z" fill="#D81B60"/>
<path d="M21.145 16.7809C21.04 17.3175 20.8592 17.8309 20.6142 18.3092C20.5033 18.525 20.3808 18.7292 20.2467 18.9275C20.165 19.05 20.0775 19.1667 19.99 19.2775C19.78 19.1959 19.4708 19.0792 19.0917 18.9509C19.0917 18.9509 19.0917 18.9509 19.0917 18.945C18.8058 18.8459 18.4792 18.7409 18.1292 18.6417C18.03 18.6125 17.9308 18.5834 17.8258 18.5542C17.4117 18.4434 16.98 18.3442 16.56 18.2859C16.21 18.2275 15.8658 18.1925 15.545 18.1925L15.2767 18.1167H15.2708L13.8592 17.7084L12.99 17.4575L12.0217 17.1775H12.0158L11.7008 17.09L7.89167 15.9934L6.795 15.6784L5.97833 15.4859L4.64833 15.1709L4.485 15.13C4.485 15.13 4.485 15.13 4.47917 15.13L3.14333 14.8209C3.14333 14.815 3.14333 14.815 3.14333 14.815L2.90417 14.7625L2.78167 14.7334L1.8075 14.5059L1.69667 14.4767L0.868333 13.7942L0.25 13.275V10.895C0.465833 10.685 0.6875 10.4867 0.920833 10.2942C0.990833 10.23 1.06667 10.1717 1.1425 10.1134C1.2125 10.055 1.28833 9.99671 1.36417 9.93838C1.895 9.53588 2.455 9.17421 3.05 8.86505C3.80833 8.45671 4.61333 8.13005 5.45917 7.89671C5.6225 7.84421 5.78583 7.79755 5.955 7.76255C6.91167 7.52338 7.915 7.40088 8.95333 7.40088C11.5608 7.40088 13.9875 8.18838 15.9942 9.53588C16.9917 10.2067 17.89 11.0117 18.6483 11.9275C19.0333 12.3884 19.3833 12.8725 19.6925 13.3859C19.7217 13.4267 19.745 13.4617 19.7683 13.5025C19.955 13.8117 20.13 14.1325 20.2875 14.4592C20.4333 14.7509 20.5617 15.0425 20.6783 15.3459C20.865 15.8125 21.0167 16.2909 21.145 16.7809Z" fill="#F50057"/>
<path d="M20.2467 18.9275C20.165 19.05 20.0775 19.1667 19.99 19.2775C19.7333 19.5984 19.4533 19.89 19.1383 20.1467C18.8642 20.3742 18.5725 20.5784 18.2633 20.7534C18.1467 20.7242 18.03 20.6892 17.9075 20.6425C17.5225 20.5084 17.12 20.2867 16.7467 20.0534C16.1867 19.6975 15.7025 19.3125 15.4867 19.1375C15.405 19.0675 15.3642 19.0325 15.3642 19.0325L14.3725 18.945L14.25 18.9334L12.9667 18.8225L11.6367 18.7059L9.67083 18.5309L6.55583 18.2567L6.54417 18.2509L5.4475 17.72L4.33917 17.1834L3.44667 16.7517L3.25417 16.6584L3.015 16.5417L2.18667 16.1392L1.08417 15.6084L0.74 15.4392L0.25 15.2875V12.68C0.524167 12.3534 0.815833 12.0442 1.125 11.7467C1.32333 11.56 1.53333 11.3734 1.74917 11.1984C1.78417 11.1692 1.81917 11.14 1.85417 11.1167C1.8775 11.0875 1.90667 11.07 1.93 11.0584C2.27417 10.7784 2.63583 10.5275 3.00917 10.3C3.44083 10.0259 3.89583 9.78087 4.36833 9.57671C4.87583 9.34921 5.40667 9.15671 5.955 9.01087C6.90583 8.74254 7.915 8.60254 8.95333 8.60254C11.3333 8.60254 13.5325 9.32587 15.3467 10.5684C16.5075 11.3617 17.5108 12.365 18.3042 13.5259C18.5667 13.8992 18.8 14.2959 19.0158 14.7042C19.0917 14.8559 19.1675 15.0075 19.2317 15.1592C19.3017 15.305 19.3658 15.4509 19.43 15.5967C19.5525 15.9 19.6633 16.2034 19.7625 16.5184C19.9492 17.1017 20.0892 17.6967 20.1767 18.315C20.2058 18.5192 20.2292 18.7234 20.2467 18.9275Z" fill="#FF1744"/>
<path d="M19.1442 19.995C19.1442 20.0417 19.1442 20.0942 19.1383 20.1467C18.8642 20.3742 18.5725 20.5783 18.2633 20.7533C18.135 20.8233 18.0067 20.8933 17.8725 20.9517C17.7383 21.0158 17.6042 21.0742 17.4642 21.1267C17.2658 21.0217 16.9975 20.8933 16.7117 20.7708C16.3092 20.59 15.8717 20.4267 15.5333 20.3742C15.4517 20.3567 15.3758 20.3508 15.3058 20.3508L14.3492 20.2283H14.3375L13.1475 20.0708L11.9458 19.9133L11.3858 19.8433L6.97583 19.2717C6.69 19.2717 6.38667 19.2542 6.07167 19.2133C5.68667 19.1783 5.28417 19.12 4.88167 19.0383C4.485 18.9683 4.0825 18.875 3.6975 18.7758C3.295 18.6825 2.89833 18.5717 2.53083 18.4667C2.105 18.3383 1.70833 18.2158 1.37583 18.105C1.10167 18.0175 0.868333 17.9358 0.6875 17.8717C0.5825 17.6208 0.495 17.3583 0.430833 17.09C0.308333 16.635 0.25 16.1567 0.25 15.6667V14.6925C0.436667 14.3833 0.640833 14.08 0.868333 13.7942C1.2825 13.2458 1.755 12.7442 2.26833 12.3008C2.28583 12.2775 2.30917 12.26 2.32667 12.2483L2.3325 12.2425C2.51333 12.0792 2.7 11.9333 2.89833 11.7933C2.92167 11.77 2.945 11.7525 2.96833 11.735C3.06167 11.665 3.16083 11.595 3.26583 11.5308C4.1 10.965 5.02167 10.5217 6.0075 10.2242C6.94083 9.94417 7.92667 9.79834 8.95333 9.79834C10.9892 9.79834 12.8908 10.3992 14.4775 11.4258C15.65 12.1783 16.6592 13.17 17.4292 14.3308C17.5225 14.465 17.61 14.5992 17.6975 14.7392C18.1 15.4217 18.4325 16.1567 18.6775 16.9267C18.7067 17.0142 18.73 17.1017 18.7533 17.195C18.8 17.3525 18.8408 17.5158 18.8758 17.6792C18.8875 17.72 18.8992 17.7608 18.9108 17.8075C18.9925 18.175 19.0508 18.56 19.0917 18.945C19.0917 18.9508 19.0917 18.9508 19.0917 18.9508C19.1267 19.295 19.1442 19.645 19.1442 19.995Z" fill="#FF5722"/>
<path d="M17.9426 19.995C17.9426 20.1992 17.9309 20.4208 17.9076 20.6425C17.8959 20.7475 17.8842 20.8525 17.8726 20.9517C17.7384 21.0158 17.6042 21.0742 17.4642 21.1267C17.2017 21.2258 16.9334 21.3075 16.6592 21.3658C16.4726 21.4067 16.2801 21.4417 16.0876 21.4592H16.0817C15.9009 21.3483 15.6909 21.2142 15.4751 21.0625C15.0842 20.7883 14.6759 20.4792 14.3492 20.2283C14.3434 20.2225 14.3434 20.2225 14.3376 20.2167C13.9934 19.9542 13.7484 19.7558 13.7484 19.7558L13.1301 19.7792L11.9401 19.82L11.3859 19.8433L9.15758 19.925L7.27341 19.995C7.15091 20.0008 7.00508 20.0008 6.82424 19.995H6.81841C6.57341 19.9892 6.28174 19.9717 5.96091 19.9425C5.58757 19.9133 5.17924 19.8783 4.76507 19.8375C4.36257 19.7908 3.95424 19.7442 3.56341 19.6975C3.13174 19.6508 2.72341 19.5983 2.37341 19.5517C2.09924 19.5167 1.86008 19.4875 1.66758 19.4642C1.50424 19.2775 1.35841 19.085 1.21841 18.875C1.00841 18.56 0.827575 18.2275 0.687575 17.8717C0.582575 17.6208 0.495075 17.3583 0.430908 17.09C0.600075 16.5708 0.821741 16.0808 1.08424 15.6083C1.29424 15.2233 1.53924 14.8558 1.80757 14.5058C2.07007 14.1617 2.35591 13.8408 2.66508 13.5492V13.5433C2.75258 13.4558 2.84007 13.3742 2.92757 13.2983C3.09091 13.1467 3.26007 13.0067 3.43507 12.8725H3.44091C3.44674 12.8608 3.45257 12.8608 3.45841 12.855C3.59841 12.7442 3.74424 12.645 3.89007 12.5458C4.75341 11.9567 5.72758 11.5192 6.77758 11.2625C7.47174 11.0933 8.20091 11 8.95341 11C10.4351 11 11.8351 11.3558 13.0659 11.9975H13.0717C14.1276 12.54 15.0609 13.2867 15.8134 14.185C16.2276 14.6633 16.5834 15.1883 16.8751 15.7425C17.0792 16.1158 17.2542 16.5067 17.4001 16.9033C17.4117 16.9383 17.4234 16.9675 17.4351 16.9967C17.5342 17.2883 17.6217 17.5917 17.6976 17.895C17.7501 18.1108 17.7909 18.3325 17.8259 18.5542C17.8376 18.6242 17.8492 18.6883 17.8551 18.7583C17.9134 19.1608 17.9426 19.575 17.9426 19.995Z" fill="#FF6F00"/>
<path d="M16.7466 19.995V20.0533C16.7466 20.2517 16.7291 20.5025 16.7116 20.7708C16.6941 20.9692 16.6766 21.1733 16.6591 21.3658C16.4724 21.4067 16.2799 21.4417 16.0874 21.4592H16.0816C15.8599 21.4883 15.6441 21.5 15.4166 21.5H14.3958L14.1741 21.4358L13.0249 21.0858L11.8583 20.7358L9.15743 19.925L7.99076 19.575C7.99076 19.575 7.5066 19.7675 6.8241 19.995H6.81826C6.55576 20.0825 6.26993 20.1758 5.9666 20.2692C5.58743 20.38 5.18493 20.4908 4.78826 20.5783C4.37993 20.6717 3.97743 20.7417 3.61576 20.7708C3.50493 20.7825 3.3941 20.7883 3.29493 20.7883C2.96826 20.6075 2.65326 20.3917 2.36743 20.1525C2.1166 19.9425 1.88326 19.715 1.66743 19.4642C1.5041 19.2775 1.35826 19.085 1.21826 18.875C1.2591 18.6125 1.30576 18.3558 1.37576 18.105C1.55076 17.4108 1.82493 16.7458 2.18659 16.1392C2.38493 15.795 2.60659 15.4625 2.86326 15.1533C2.86909 15.1358 2.8866 15.1183 2.9041 15.1067C2.89826 15.1008 2.9041 15.1008 2.9041 15.1008C2.97993 15.0017 3.0616 14.9083 3.14326 14.8208C3.14326 14.815 3.14326 14.815 3.14326 14.815C3.38243 14.5583 3.62743 14.3133 3.89576 14.0858C3.9891 14.01 4.07659 13.9342 4.17576 13.8583C4.19326 13.8408 4.21076 13.8292 4.23409 13.8117C5.54659 12.8083 7.18576 12.2017 8.95326 12.2017C10.9599 12.2017 12.7858 12.9542 14.1683 14.1908C14.8333 14.7917 15.3991 15.5092 15.8249 16.3083C15.8599 16.3667 15.8949 16.4308 15.9241 16.495C15.9766 16.6 16.0291 16.7108 16.0758 16.8275C16.2683 17.2475 16.4199 17.6908 16.5249 18.1458C16.5366 18.1925 16.5483 18.2392 16.5599 18.2858C16.6066 18.5017 16.6474 18.7233 16.6766 18.945C16.7233 19.2892 16.7466 19.6392 16.7466 19.995Z" fill="#FF9800"/>
<path d="M15.5449 19.995C15.5449 20.1116 15.539 20.24 15.5332 20.3741C15.5215 20.59 15.504 20.8233 15.4749 21.0625C15.4632 21.2083 15.4399 21.3541 15.4165 21.5H12.2199L11.6015 21.4008L9.18655 21.0158L8.84238 20.9633L8.05488 20.835C7.71071 20.835 6.96405 20.9866 6.17655 21.1325C5.76238 21.2083 5.34238 21.29 4.96321 21.3425C4.91655 21.3483 4.86988 21.3541 4.82905 21.36H4.82321C4.41488 21.2725 4.01821 21.1383 3.64488 20.9633C3.52821 20.9108 3.41155 20.8525 3.29488 20.7883C2.96821 20.6075 2.65321 20.3916 2.36738 20.1525C2.36155 20.0825 2.35571 20.0241 2.35571 19.995C2.35571 19.8433 2.36155 19.6975 2.37321 19.5516C2.39655 19.1783 2.44905 18.8166 2.53071 18.4666C2.65905 17.9358 2.84571 17.4225 3.09655 16.95C3.14321 16.8508 3.19571 16.7516 3.25405 16.6583C3.27738 16.6116 3.30655 16.5708 3.32988 16.5241C3.43488 16.355 3.55155 16.1916 3.66821 16.0283C3.91321 15.7075 4.18738 15.4041 4.47905 15.13C4.48488 15.13 4.48488 15.13 4.48488 15.13C4.50821 15.1066 4.53155 15.0833 4.55488 15.0658C4.58405 15.0425 4.60738 15.0133 4.63655 14.9958C4.75321 14.8908 4.86988 14.7975 4.99238 14.71C4.99238 14.7041 4.99821 14.7041 4.99821 14.7041C6.10071 13.8816 7.46571 13.3975 8.95321 13.3975C10.1082 13.3975 11.1815 13.6891 12.1207 14.2025H12.1265C12.9315 14.6458 13.6315 15.2466 14.1857 15.97C14.4015 16.25 14.594 16.5475 14.7574 16.8625H14.7632C14.7924 16.9208 14.8215 16.9791 14.8507 17.0375C15.0257 17.3816 15.1657 17.7433 15.2707 18.1166H15.2765C15.2824 18.1458 15.294 18.175 15.2999 18.2041C15.3699 18.455 15.4282 18.7116 15.469 18.9741C15.4749 19.0266 15.4807 19.085 15.4865 19.1375C15.5274 19.4175 15.5449 19.7033 15.5449 19.995Z" fill="#FFC107"/>
<path d="M14.3493 19.9308C14.3493 20.0241 14.3493 20.1233 14.3376 20.2166V20.2225C14.3376 20.2283 14.3376 20.2283 14.3376 20.2283C14.326 20.6483 14.2676 21.0625 14.1743 21.4358C14.1743 21.4591 14.1685 21.4766 14.1568 21.5H11.4326L9.18678 21.0158L8.88928 20.9516L8.84262 20.9633L6.35178 21.4766L6.24095 21.5H6.08345C5.71012 21.5 5.34262 21.465 4.98678 21.395C4.93428 21.3833 4.88178 21.3716 4.82928 21.36H4.82345C4.41512 21.2725 4.01845 21.1383 3.64512 20.9633C3.63345 20.8991 3.62178 20.835 3.61595 20.7708C3.57512 20.52 3.55762 20.2575 3.55762 19.995C3.55762 19.8958 3.55762 19.7966 3.56345 19.6975C3.58095 19.3825 3.62762 19.0733 3.69762 18.7758C3.74428 18.5541 3.80845 18.3383 3.88428 18.1341C3.94845 17.9533 4.02428 17.7783 4.10595 17.6091C4.17595 17.4633 4.25762 17.3233 4.33928 17.1833C4.42095 17.0491 4.50845 16.9208 4.60178 16.7925C4.83512 16.4716 5.10928 16.1741 5.41262 15.9116C5.58762 15.76 5.78012 15.6141 5.97845 15.4858C6.83012 14.9258 7.85095 14.5991 8.95345 14.5991C9.16928 14.5991 9.37928 14.6108 9.58345 14.64H9.59512C10.2193 14.71 10.8026 14.885 11.3393 15.1475C11.3451 15.1475 11.3451 15.1475 11.3451 15.1475C12.191 15.5616 12.9085 16.1858 13.4335 16.9558C13.521 17.0841 13.6085 17.2241 13.6843 17.3641C13.7485 17.475 13.8068 17.5916 13.8593 17.7083C13.941 17.8891 14.0168 18.0816 14.081 18.2741H14.0868C14.151 18.49 14.2093 18.7058 14.2501 18.9333V18.9391C14.3143 19.26 14.3493 19.5925 14.3493 19.9308Z" fill="#FFD54F"/>
<path d="M13.1476 20.0533V20.0708C13.1476 20.4149 13.1068 20.7533 13.0251 21.0858C12.9959 21.2258 12.9551 21.3658 12.9026 21.4999H10.2893L8.95342 21.1324L7.61758 21.4999H6.08342C5.71008 21.4999 5.34258 21.4649 4.98675 21.3949C4.97508 21.3774 4.96925 21.3599 4.96342 21.3424C4.88175 21.0916 4.81758 20.8408 4.78842 20.5783C4.76508 20.4091 4.75342 20.2341 4.75342 20.0533C4.75342 19.9833 4.75342 19.9074 4.76508 19.8374C4.77092 19.5633 4.81175 19.2949 4.88175 19.0383C4.91675 18.8633 4.96925 18.6941 5.03925 18.5308C5.06258 18.4491 5.09758 18.3733 5.13842 18.2974C5.22592 18.0991 5.33092 17.9066 5.44758 17.7199C5.57592 17.5333 5.71592 17.3583 5.87342 17.1949C6.06008 16.9849 6.27008 16.7924 6.50925 16.6349C6.91758 16.3374 7.38425 16.1158 7.89175 15.9933C8.23008 15.8999 8.58592 15.8533 8.95342 15.8533C10.1201 15.8533 11.1643 16.3199 11.9226 17.0724C11.9518 17.1016 11.9868 17.1366 12.0159 17.1774H12.0218C12.1034 17.2649 12.1793 17.3524 12.2551 17.4516C12.4709 17.7258 12.6518 18.0233 12.7918 18.3499C12.8618 18.5016 12.9201 18.6591 12.9668 18.8224C12.9726 18.8458 12.9784 18.8633 12.9843 18.8866C13.0659 19.1724 13.1184 19.4699 13.1301 19.7791C13.1418 19.8666 13.1476 19.9599 13.1476 20.0533Z" fill="#FFE082"/>
<path d="M11.9517 20.0534C11.9517 20.2926 11.9226 20.5201 11.8584 20.7359C11.8001 20.9692 11.7126 21.1909 11.6017 21.4009C11.5842 21.4359 11.5434 21.5001 11.5434 21.5001H6.36341C6.35758 21.4942 6.35174 21.4826 6.35174 21.4767C6.28174 21.3659 6.22341 21.2551 6.17674 21.1326C6.06008 20.8642 5.99008 20.5726 5.96675 20.2692C5.95508 20.1992 5.95508 20.1234 5.95508 20.0534C5.95508 20.0184 5.95508 19.9776 5.96091 19.9426C5.96674 19.6859 6.00174 19.4409 6.07174 19.2134C6.13008 19.0034 6.20591 18.8109 6.30508 18.6242C6.30508 18.6242 6.31091 18.6184 6.31091 18.6126C6.38091 18.4901 6.45675 18.3676 6.54425 18.2509C6.83008 17.8659 7.20925 17.5509 7.64675 17.3467C7.65258 17.3467 7.65258 17.3467 7.65258 17.3467C7.79258 17.2767 7.93841 17.2184 8.09008 17.1776C8.09008 17.1776 8.09008 17.1776 8.09591 17.1776C8.36425 17.0959 8.65591 17.0551 8.95341 17.0551C9.29758 17.0551 9.63008 17.1076 9.93341 17.2184C10.0442 17.2476 10.1492 17.2942 10.2542 17.3467C10.2542 17.3467 10.2542 17.3467 10.2601 17.3467C10.7617 17.5859 11.1876 17.9592 11.4792 18.4259C11.5376 18.5134 11.5901 18.6067 11.6367 18.7059C11.6601 18.7467 11.6834 18.7934 11.7009 18.8342C11.8351 19.1376 11.9167 19.4701 11.9401 19.8201C11.9459 19.8492 11.9459 19.8784 11.9459 19.9134C11.9517 19.9601 11.9517 20.0067 11.9517 20.0534Z" fill="#FFECB3"/>
<path d="M14.2501 3.41663H7.25008C4.97508 3.41663 3.16675 5.22496 3.16675 7.49996V14.5C3.16675 16.775 4.97508 18.5833 7.25008 18.5833H14.2501C16.5251 18.5833 18.3334 16.775 18.3334 14.5V7.49996C18.3334 5.22496 16.5251 3.41663 14.2501 3.41663Z" stroke="white" stroke-width="2" stroke-miterlimit="10" stroke-linecap="round" stroke-linejoin="round"/>
<path d="M14.8333 6.91667C15.1555 6.91667 15.4167 6.6555 15.4167 6.33333C15.4167 6.01117 15.1555 5.75 14.8333 5.75C14.5112 5.75 14.25 6.01117 14.25 6.33333C14.25 6.6555 14.5112 6.91667 14.8333 6.91667Z" fill="white"/>
<path d="M10.75 14.5C12.683 14.5 14.25 12.933 14.25 11C14.25 9.067 12.683 7.5 10.75 7.5C8.817 7.5 7.25 9.067 7.25 11C7.25 12.933 8.817 14.5 10.75 14.5Z" stroke="white" stroke-width="2" stroke-miterlimit="10" stroke-linecap="round" stroke-linejoin="round"/>
</svg>
