<svg width="21" height="22" viewBox="0 0 21 22" fill="none" xmlns="http://www.w3.org/2000/svg">
<path d="M21 18.5833C21 20.1945 19.6945 21.5 18.0833 21.5H2.91667C1.30608 21.5 0 20.1945 0 18.5833V3.41667C0 1.8055 1.30608 0.5 2.91667 0.5H18.0833C19.6945 0.5 21 1.8055 21 3.41667V18.5833Z" fill="#0288D1"/>
<path d="M3.5 8.08333H6.41667V18H3.5V8.08333ZM4.94958 6.91667H4.93325C4.06292 6.91667 3.5 6.268 3.5 5.45775C3.5 4.63 4.08042 4 4.9665 4C5.85375 4 6.40033 4.63 6.41667 5.45775C6.41667 6.26742 5.85375 6.91667 4.94958 6.91667ZM17.5 18H14.5833V12.6922C14.5833 11.4101 13.8687 10.5351 12.7213 10.5351C11.8458 10.5351 11.3721 11.1254 11.1422 11.6959C11.0582 11.9001 11.0833 12.4647 11.0833 12.75V18H8.16667V8.08333H11.0833V9.60933C11.5039 8.95833 12.1625 8.08333 13.8472 8.08333C15.9343 8.08333 17.4994 9.39583 17.4994 12.3265L17.5 18Z" fill="white"/>
</svg>
