<svg width="133" height="38" viewBox="0 0 133 38" fill="none" xmlns="http://www.w3.org/2000/svg">
<path d="M53.2021 11.5242V13.7058H50.2457V22.7014H47.5267V13.7058H44.5703V11.5242H53.2021Z" fill="#231F20"/>
<path d="M62.883 18.9132H56.7308C56.7736 19.465 56.9507 19.8881 57.264 20.1785C57.5774 20.471 57.9608 20.6172 58.4163 20.6172C59.0936 20.6172 59.5665 20.3306 59.8312 19.7574H62.7234C62.5755 20.3404 62.3069 20.8668 61.9215 21.3327C61.5342 21.8006 61.0496 22.1652 60.4676 22.4304C59.8838 22.6955 59.2337 22.8281 58.5116 22.8281C57.6436 22.8281 56.8689 22.6429 56.1916 22.2705C55.5143 21.8981 54.983 21.3678 54.6015 20.6776C54.22 19.9875 54.0293 19.1803 54.0293 18.2582C54.0293 17.336 54.2181 16.5289 54.5937 15.8387C54.9694 15.1485 55.4968 14.6182 56.1761 14.2459C56.8534 13.8735 57.6338 13.6883 58.5136 13.6883C59.3933 13.6883 60.1348 13.8696 60.8024 14.2303C61.47 14.5909 61.9916 15.1056 62.3672 15.7744C62.7429 16.4431 62.9317 17.2229 62.9317 18.1158C62.9317 18.3712 62.9161 18.6364 62.883 18.9113V18.9132ZM60.1485 17.4003C60.1485 16.9324 59.9889 16.562 59.6716 16.2852C59.3544 16.0083 58.9554 15.8718 58.4805 15.8718C58.0056 15.8718 57.6397 16.0044 57.3283 16.2696C57.0149 16.5347 56.8222 16.911 56.7483 17.4003H60.1504H60.1485Z" fill="#231F20"/>
<path d="M64.3838 15.8387C64.7594 15.1485 65.2849 14.6182 65.9564 14.2459C66.6298 13.8735 67.4005 13.6883 68.2686 13.6883C69.3818 13.6883 70.3102 13.9807 71.0576 14.5636C71.805 15.1466 72.2955 15.9693 72.5271 17.0319H69.6349C69.3916 16.3534 68.9186 16.0122 68.2199 16.0122C67.7217 16.0122 67.3246 16.2052 67.0288 16.5932C66.7329 16.9812 66.5831 17.5349 66.5831 18.2562C66.5831 18.9776 66.731 19.5332 67.0288 19.9212C67.3246 20.3092 67.7236 20.5022 68.2199 20.5022C68.9186 20.5022 69.3916 20.1629 69.6349 19.4825H72.5271C72.2935 20.5236 71.8011 21.3405 71.0479 21.9351C70.2947 22.5298 69.3682 22.8261 68.2666 22.8261C67.3966 22.8261 66.6259 22.6409 65.9544 22.2685C65.281 21.8962 64.7574 21.3659 64.3818 20.6757C64.0062 19.9855 63.8174 19.1784 63.8174 18.2562C63.8174 17.3341 64.0062 16.5269 64.3818 15.8367L64.3838 15.8387Z" fill="#231F20"/>
<path d="M81.8771 14.7333C82.4921 15.4078 82.7996 16.3339 82.7996 17.5115V22.7013H80.0982V17.876C80.0982 17.2814 79.9444 16.8194 79.6369 16.4918C79.3294 16.1623 78.9168 15.9986 78.3971 15.9986C77.8774 15.9986 77.4648 16.1623 77.1573 16.4918C76.8498 16.8213 76.696 17.2834 76.696 17.876V22.7013H73.9771V10.9179H76.696V15.0101C76.9724 14.6182 77.348 14.3043 77.8249 14.0704C78.3017 13.8364 78.837 13.7195 79.4306 13.7195C80.4485 13.7195 81.264 14.0567 81.879 14.7313L81.8771 14.7333Z" fill="#231F20"/>
<path d="M89.7049 14.0723C90.1759 14.3277 90.5398 14.6611 90.7928 15.0764V13.8189H93.5099V22.6877C93.5099 23.5046 93.3483 24.2454 93.0252 24.9083C92.7022 25.5712 92.2098 26.0995 91.548 26.4934C90.8863 26.8852 90.061 27.0821 89.0762 27.0821C87.7625 27.0821 86.6978 26.7722 85.8804 26.1502C85.0649 25.5283 84.5978 24.688 84.481 23.6255H87.1669C87.2525 23.9647 87.453 24.2337 87.7702 24.4287C88.0875 24.6256 88.4806 24.7231 88.9458 24.7231C89.5063 24.7231 89.9559 24.5613 90.2888 24.2376C90.6216 23.914 90.789 23.3954 90.789 22.6858V21.4282C90.5243 21.8416 90.1583 22.1789 89.6912 22.4401C89.2241 22.6994 88.6792 22.83 88.0544 22.83C87.3226 22.83 86.6609 22.6409 86.0672 22.2646C85.4736 21.8884 85.0046 21.3522 84.6601 20.6562C84.3156 19.9602 84.1443 19.1569 84.1443 18.2445C84.1443 17.3321 84.3156 16.5308 84.6601 15.8406C85.0046 15.1505 85.4736 14.6202 86.0672 14.2478C86.6609 13.8754 87.3226 13.6902 88.0544 13.6902C88.6792 13.6902 89.228 13.8169 89.699 14.0723H89.7049ZM90.2304 16.6517C89.8547 16.2598 89.3954 16.0629 88.8563 16.0629C88.3172 16.0629 87.8578 16.2559 87.4822 16.6439C87.1066 17.0319 86.9178 17.5641 86.9178 18.2445C86.9178 18.9249 87.1066 19.463 87.4822 19.8608C87.8578 20.2585 88.3172 20.4573 88.8563 20.4573C89.3954 20.4573 89.8547 20.2604 90.2304 19.8686C90.606 19.4767 90.7948 18.9405 90.7948 18.2601C90.7948 17.5797 90.606 17.0455 90.2304 16.6517Z" fill="#231F20"/>
<path d="M99.3938 14.1445C99.8706 13.8637 100.4 13.7234 100.984 13.7234V16.6049H100.237C99.5572 16.6049 99.0493 16.7511 98.7106 17.0436C98.372 17.336 98.2026 17.8468 98.2026 18.5799V22.7033H95.4836V13.8189H98.2026V15.2986C98.5199 14.8112 98.9169 14.4252 99.3938 14.1445Z" fill="#231F20"/>
<path d="M103.979 22.2724C103.284 21.9001 102.739 21.3698 102.342 20.6796C101.945 19.9894 101.747 19.1823 101.747 18.2601C101.747 17.338 101.947 16.5425 102.35 15.8484C102.753 15.1524 103.304 14.6202 104.003 14.2478C104.701 13.8754 105.486 13.6902 106.356 13.6902C107.226 13.6902 108.008 13.8754 108.709 14.2478C109.407 14.6202 109.958 15.1524 110.361 15.8484C110.764 16.5445 110.964 17.3477 110.964 18.2601C110.964 19.1725 110.76 19.9777 110.353 20.6718C109.945 21.3678 109.388 21.9001 108.683 22.2724C107.979 22.6448 107.193 22.83 106.323 22.83C105.453 22.83 104.672 22.6448 103.977 22.2724H103.979ZM107.652 19.8997C108.018 19.5176 108.201 18.9717 108.201 18.2601C108.201 17.5485 108.024 17.0026 107.667 16.6205C107.311 16.2384 106.875 16.0473 106.356 16.0473C105.836 16.0473 105.386 16.2364 105.036 16.6127C104.686 16.989 104.511 17.5388 104.511 18.2601C104.511 18.9815 104.682 19.5176 105.026 19.8997C105.371 20.2819 105.803 20.4729 106.323 20.4729C106.842 20.4729 107.284 20.2819 107.65 19.8997H107.652Z" fill="#231F20"/>
<path d="M121.169 13.8169V22.7013H118.45V21.4906C118.174 21.8825 117.8 22.1983 117.329 22.4381C116.858 22.678 116.336 22.7969 115.764 22.7969C115.085 22.7969 114.487 22.6448 113.968 22.3426C113.448 22.0404 113.045 21.6018 112.759 21.0286C112.473 20.4554 112.329 19.7808 112.329 19.0068V13.8169H115.03V18.6422C115.03 19.2369 115.184 19.6989 115.492 20.0265C115.799 20.356 116.212 20.5197 116.731 20.5197C117.251 20.5197 117.679 20.356 117.987 20.0265C118.294 19.697 118.448 19.2369 118.448 18.6422V13.8169H121.167H121.169Z" fill="#231F20"/>
<path d="M126.94 14.0723C127.407 13.8169 127.952 13.6902 128.576 13.6902C129.308 13.6902 129.97 13.8754 130.564 14.2478C131.157 14.6202 131.626 15.1505 131.971 15.8406C132.315 16.5308 132.486 17.3321 132.486 18.2445C132.486 19.1569 132.313 19.9621 131.971 20.6562C131.626 21.3522 131.157 21.8884 130.564 22.2646C129.97 22.6409 129.308 22.83 128.576 22.83C127.961 22.83 127.418 22.7033 126.947 22.4479C126.476 22.1925 126.106 21.865 125.842 21.4614V26.9379H123.123V13.8189H125.842V15.0764C126.106 14.6631 126.472 14.3277 126.938 14.0723H126.94ZM129.156 16.6439C128.781 16.2559 128.316 16.0629 127.765 16.0629C127.214 16.0629 126.766 16.2598 126.391 16.6517C126.015 17.0436 125.826 17.5797 125.826 18.2601C125.826 18.9405 126.015 19.4767 126.391 19.8686C126.766 20.2604 127.226 20.4573 127.765 20.4573C128.304 20.4573 128.765 20.2585 129.147 19.8608C129.528 19.463 129.719 18.9249 129.719 18.2445C129.719 17.5641 129.53 17.0319 129.154 16.6439H129.156Z" fill="#231F20"/>
<path d="M30.1287 0H7.8066C3.49514 0 0 3.5011 0 7.81992V30.1801C0 34.4989 3.49514 38 7.8066 38H30.1287C34.4402 38 37.9353 34.4989 37.9353 30.1801V7.81992C37.9353 3.5011 34.4402 0 30.1287 0Z" fill="#231F20"/>
<path d="M28.4451 17.1839L23.5171 9.6779H18.9841V28.3221H23.5171V16.8213L28.4451 24.2942V17.1839Z" fill="white"/>
<path d="M29.4648 9.6779V21.2313V28.3221H33.9978V9.6779H29.4648Z" fill="white"/>
<path d="M17.9273 14.0704L14.5173 22.5863L9.29347 9.6779H3.93726V28.3221H8.47019V17.1137L12.6606 28.3221H16.3196L17.9273 24.0037V14.0704Z" fill="white"/>
</svg>
