<svg width="24" height="24" viewBox="0 0 24 24" fill="none" xmlns="http://www.w3.org/2000/svg">
<path fill-rule="evenodd" clip-rule="evenodd" d="M0.8396 23.26L2.4111 17.523C1.4416 15.8441 0.931766 13.939 0.93235 11.9877C0.935266 5.88313 5.90293 0.916626 12.0081 0.916626C14.9709 0.917793 17.751 2.07104 19.8423 4.16346C21.9329 6.25646 23.0844 9.03779 23.0833 11.9965C23.0809 18.101 18.1121 23.0681 12.0081 23.0681H12.0034C10.1502 23.0675 8.32843 22.6026 6.71085 21.72L0.8396 23.26Z" fill="white"/>
<path fill-rule="evenodd" clip-rule="evenodd" d="M0.839752 23.5518C0.762752 23.5518 0.688085 23.5214 0.632668 23.4654C0.559752 23.3913 0.531168 23.2834 0.558585 23.1837L2.098 17.5627C1.14367 15.8675 0.640251 13.9425 0.641418 11.9883C0.643751 5.72217 5.74267 0.625 12.0083 0.625C15.0474 0.626167 17.9028 1.80975 20.0489 3.95758C22.195 6.106 23.3762 8.96083 23.3751 11.9965C23.3727 18.2621 18.2733 23.3598 12.0083 23.3598C10.148 23.3592 8.30758 22.9002 6.67425 22.0316L0.913835 23.5418C0.889335 23.5488 0.864835 23.5518 0.839752 23.5518Z" fill="white"/>
<path fill-rule="evenodd" clip-rule="evenodd" d="M12.0082 0.916707C14.9709 0.917874 17.7511 2.07112 19.8423 4.16354C21.933 6.25654 23.0845 9.03787 23.0833 11.9965C23.081 18.1011 18.1122 23.0682 12.0082 23.0682H12.0035C10.1503 23.0676 8.32851 22.6027 6.71093 21.7201L0.839677 23.2601L2.41118 17.523C1.44168 15.8442 0.931843 13.939 0.932427 11.9878C0.935343 5.88321 5.90301 0.916707 12.0082 0.916707ZM12.0082 0.333374C5.58218 0.333374 0.35201 5.56121 0.349093 11.9878C0.34851 13.9519 0.844343 15.8874 1.78468 17.6006L0.27676 23.1067C0.221927 23.308 0.277927 23.5226 0.424927 23.6708C0.53576 23.7828 0.685677 23.844 0.839677 23.844C0.88926 23.844 0.938844 23.8376 0.987844 23.8248L6.63859 22.3431C8.28826 23.1995 10.1374 23.6515 12.0035 23.6521C18.4342 23.6521 23.6643 18.4237 23.6673 11.9971C23.6684 8.88271 22.4568 5.95437 20.2559 3.75171C18.0538 1.54846 15.1249 0.334541 12.0082 0.333374Z" fill="#CFD8DC"/>
<path fill-rule="evenodd" clip-rule="evenodd" d="M18.5193 5.48537C16.781 3.74586 14.4704 2.78745 12.0111 2.78687C6.93375 2.78687 2.80434 6.91453 2.802 11.9884C2.80142 13.7273 3.28792 15.4201 4.20959 16.886L4.42892 17.2343L3.4985 20.6299L6.98275 19.7164L7.31934 19.9159C8.73217 20.7547 10.3527 21.198 12.0047 21.1986H12.0082C17.082 21.1986 21.2114 17.0704 21.2132 11.9959C21.2138 9.5372 20.2577 7.22487 18.5193 5.48537Z" fill="#40C351"/>
<path fill-rule="evenodd" clip-rule="evenodd" d="M9.23972 7.35964C9.03264 6.89881 8.81447 6.88947 8.61672 6.88131C8.45514 6.87431 8.27081 6.87489 8.08647 6.87489C7.90214 6.87489 7.60231 6.94431 7.34855 7.22139C7.0948 7.49847 6.37964 8.16756 6.37964 9.52906C6.37964 10.8906 7.37131 12.2066 7.50956 12.3909C7.64781 12.5752 9.42406 15.4586 12.2369 16.5681C14.5743 17.4898 15.0503 17.3066 15.5578 17.2606C16.0653 17.2145 17.1952 16.5915 17.4256 15.9451C17.6561 15.2988 17.6561 14.7452 17.5872 14.6297C17.5178 14.5142 17.3335 14.4454 17.057 14.3066C16.7805 14.1677 15.4196 13.4986 15.1658 13.4065C14.9121 13.3143 14.7277 13.2682 14.5428 13.5453C14.3585 13.8218 13.8282 14.4454 13.6666 14.6297C13.5051 14.8146 13.3435 14.838 13.067 14.6991C12.7905 14.5603 11.8991 14.2686 10.8416 13.326C10.0191 12.5927 9.46372 11.6868 9.30214 11.4097C9.14056 11.1332 9.28464 10.9833 9.42347 10.8451C9.54772 10.7208 9.69997 10.5219 9.83881 10.3603C9.97706 10.1987 10.0231 10.0832 10.1153 9.89889C10.2075 9.71397 10.1614 9.55239 10.092 9.41414C10.0237 9.27531 9.48589 7.90681 9.23972 7.35964Z" fill="white"/>
</svg>
