<svg width="24" height="18" viewBox="0 0 24 18" fill="none" xmlns="http://www.w3.org/2000/svg">
<path d="M23.4499 14.775C23.2166 16 22.2249 16.9333 20.9999 17.1083C19.0749 17.4 15.8666 17.75 12.2499 17.75C8.69159 17.75 5.48325 17.4 3.49992 17.1083C2.27492 16.9333 1.28325 16 1.04992 14.775C0.816585 13.4333 0.583252 11.45 0.583252 9C0.583252 6.55 0.816585 4.56667 1.04992 3.225C1.28325 2 2.27492 1.06667 3.49992 0.891667C5.42492 0.6 8.63325 0.25 12.2499 0.25C15.8666 0.25 19.0166 0.6 20.9999 0.891667C22.2249 1.06667 23.2166 2 23.4499 3.225C23.6833 4.56667 23.9749 6.55 23.9749 9C23.9166 11.45 23.6833 13.4333 23.4499 14.775Z" fill="#FF3D00"/>
<path d="M9.91675 13.0833V4.91663L16.9167 8.99996L9.91675 13.0833Z" fill="white"/>
</svg>
